<svg width="1164" height="633" viewBox="0 0 1164 633" fill="none" xmlns="http://www.w3.org/2000/svg">
<path d="M377.63 152.714C348.505 189.194 256.917 271.899 123.56 310.881L83.2952 319.831L82.5593 323.162L81.6846 327.819L80.074 337.113L79.2687 346.592L78.4634 356.577L98.9984 352.021C474.91 216.54 477.352 95.5983 431.585 52.0624C411.318 32.8906 347.029 6.05013 252.004 52.0624C133.223 109.578 34.9775 234.594 3.16838 391.962C-28.6407 549.33 194.426 582.881 317.636 560.514C440.846 538.147 631.298 439.891 773.432 272.937C887.14 139.374 994.485 83.3496 1033.94 72.033C1221.42 3.65364 1112.06 182.004 1033.94 279.727C977.037 344.032 860.645 487.022 850.338 544.537C808.14 701.107 1041.86 614.035 1164 550.928V458.664C1130.18 512.185 1039.58 611.958 947.778 582.881C833.024 546.534 1027.9 359.21 1069.38 316.074C1102.56 281.564 1146.28 209.83 1164 178.277V39.8818C1164 39.8818 1135.5 -25.8648 1010.99 12.6924C933.01 36.8426 805.644 175.081 641.364 332.05C509.94 457.625 370.785 506.327 317.636 514.981C247.441 530.159 101.736 528.321 80.4766 399.551C59.2168 270.78 172.28 154.179 231.469 111.974C377.63 20.5088 409.439 107.98 377.63 152.714Z" fill="#C2A4FF"/>
</svg>
